<?xml version="1.0" encoding="UTF-8"?> <svg xmlns="http://www.w3.org/2000/svg" width="268" height="27" viewBox="0 0 268 27" fill="none"> <g clip-path="url(#clip0)"> <path d="M19.1 10.9999V2.8999H2.5V11.0999L10.8 5.1999L19.1 10.9999Z" fill="#D7171E"></path> <path d="M2.5 17.4V19.5H19.1V17.4L10.8 11.2L2.5 17.4Z" fill="#D7171E"></path> <path d="M0 21.8999H21.5V0.399902H0V21.8999ZM1.4 1.7999H20.1V20.5999H1.4V1.7999Z" fill="#D7171E"></path> <path d="M31.7999 0.399902L27.7 21.9999H32.4L32.9 18.1999H36.5L37 21.9999H41.7999L37.4 0.399902H31.7999ZM33.4 13.9999L34.5999 4.8999L35.7999 13.9999H33.4Z" fill="#D7171E"></path> <path d="M55.2 13.1999L53.4 0.399902H47V21.9999H51.2V5.8999L53.6 21.9999H56.8L59.2 5.8999H59.3V21.9999H63.4V0.399902H57L55.2 13.1999Z" fill="#D7171E"></path> <path d="M82.9 0.399902H72V5.5999C72 6.7999 72 7.9999 71.9 8.9999C71.9 9.9999 71.8 10.9999 71.6 11.9999C71.5 12.8999 71.3 13.8999 71.1 14.6999C70.9 15.5999 70.6 16.3999 70.3 17.2999H69.1V25.9999H73.2V21.9999H80.3V26.0999H84.4V17.3999H82.9V0.399902ZM78.5 17.3999H74.9C75.1 16.8999 75.2 16.2999 75.4 15.4999C75.6 14.6999 75.7 13.8999 75.8 12.9999C75.9 12.0999 76 11.0999 76.1 10.0999C76.2 9.0999 76.2 7.9999 76.2 6.8999V4.8999H78.5V17.3999Z" fill="#D7171E"></path> <path d="M94.9 13.0999H100.2V8.6999H94.9V4.9999H100.6V0.399902H90.4V21.9999H100.8V17.3999H94.9V13.0999Z" fill="white"></path> <path d="M118.5 12.3999C118.2 11.8999 117.9 11.5999 117.5 11.1999C117.1 10.8999 116.6 10.6999 116.1 10.5999V10.4999C116.6 10.3999 117 10.1999 117.3 9.8999C117.6 9.5999 117.9 9.1999 118.1 8.7999C118.3 8.3999 118.5 7.8999 118.6 7.3999C118.7 6.8999 118.8 6.2999 118.8 5.7999C118.8 4.1999 118.4 2.8999 117.7 1.8999C116.9 0.899902 115.8 0.399902 114.2 0.399902H107.4V21.9999H114.2C115.1 21.9999 115.9 21.7999 116.6 21.4999C117.3 21.1999 117.8 20.7999 118.2 20.1999C118.6 19.5999 118.9 18.9999 119.1 18.1999C119.3 17.3999 119.4 16.5999 119.4 15.5999C119.4 14.9999 119.3 14.4999 119.2 13.8999C119 13.3999 118.8 12.8999 118.5 12.3999ZM111.8 4.4999H112.9C113.4 4.4999 113.7 4.6999 114 5.1999C114.2 5.5999 114.4 6.1999 114.4 6.7999C114.4 7.3999 114.3 7.8999 114 8.2999C113.8 8.6999 113.4 8.8999 112.9 8.8999H111.8V4.4999ZM114.2 17.2999C113.9 17.6999 113.5 17.8999 113.1 17.8999H111.9V12.6999H113.1C113.5 12.6999 113.9 12.8999 114.2 13.3999C114.5 13.7999 114.7 14.4999 114.7 15.2999C114.7 16.1999 114.5 16.7999 114.2 17.2999Z" fill="white"></path> <path d="M130.3 13.0999H135.6V8.6999H130.3V4.9999H136V0.399902H125.8V21.9999H136.2V17.3999H130.3V13.0999Z" fill="white"></path> <path d="M144.2 7.4999C144.2 9.3999 144.1 10.9999 144.1 12.2999C144 13.5999 144 14.5999 143.9 15.2999C143.8 15.9999 143.7 16.4999 143.5 16.8999C143.3 17.1999 143.2 17.3999 142.9 17.4999C142.7 17.5999 142.4 17.5999 142.1 17.5999C142 17.5999 141.9 17.5999 141.8 17.5999C141.7 17.5999 141.6 17.5999 141.5 17.5999V21.9999C141.6 21.9999 141.8 22.0999 141.9 22.0999C142.1 22.0999 142.3 22.0999 142.4 22.1999C142.6 22.1999 142.8 22.1999 142.9 22.1999C143.1 22.1999 143.2 22.1999 143.3 22.1999C144.4 22.1999 145.3 21.9999 145.9 21.4999C146.6 20.9999 147.1 20.0999 147.4 18.7999C147.7 17.4999 148 15.6999 148.1 13.4999C148.2 11.2999 148.3 8.3999 148.3 4.8999H150.4V21.9999H154.9V0.399902H144.2C144.3 3.1999 144.2 5.5999 144.2 7.4999Z" fill="white"></path> <path d="M172.3 2.6C171.8 1.7 171.2 1.1 170.4 0.6C169.6 0.2 168.7 0 167.5 0C166.4 0 165.4 0.2 164.6 0.6C163.8 1 163.2 1.7 162.7 2.6C162.2 3.5 161.9 4.7 161.7 6.1C161.5 7.5 161.4 9.2 161.4 11.2C161.4 13.2 161.5 15 161.7 16.4C161.9 17.8 162.3 19 162.7 19.8C163.2 20.7 163.8 21.3 164.6 21.7C165.4 22.1 166.3 22.3 167.5 22.3C168.6 22.3 169.6 22.1 170.4 21.7C171.2 21.3 171.8 20.7 172.3 19.8C172.8 18.9 173.1 17.8 173.3 16.4C173.5 15 173.6 13.3 173.6 11.2C173.6 9.2 173.5 7.5 173.3 6.1C173.1 4.6 172.8 3.5 172.3 2.6ZM169 14.8C169 15.8 168.9 16.5 168.8 17.1C168.7 17.7 168.5 18.1 168.3 18.3C168.1 18.5 167.8 18.6 167.5 18.6C167.2 18.6 166.9 18.5 166.7 18.3C166.5 18.1 166.3 17.7 166.2 17.1C166.1 16.5 166 15.8 166 14.8C166 13.8 166 12.6 166 11.2C166 9.8 166 8.6 166 7.6C166 6.6 166.1 5.9 166.2 5.3C166.3 4.7 166.5 4.3 166.7 4.1C166.9 3.9 167.2 3.8 167.5 3.8C167.8 3.8 168.1 3.9 168.3 4.1C168.5 4.3 168.7 4.7 168.8 5.3C168.9 5.9 169 6.6 169 7.6C169 8.6 169 9.8 169 11.2C169.1 12.6 169 13.8 169 14.8Z" fill="white"></path> <path d="M180.1 21.9999H184.6V4.9999H187.3V21.9999H191.8V0.399902H180.1V21.9999Z" fill="white"></path> <path d="M206.8 13.1999H206.7L204.9 0.399902H198.5V21.9999H202.7V5.8999L205.1 21.9999H208.3L210.7 5.8999H210.8V21.9999H214.9V0.399902H208.6L206.8 13.1999Z" fill="white"></path> <path d="M226.2 13.0999H231.5V8.6999H226.2V4.9999H231.9V0.399902H221.7V21.9999H232.1V17.3999H226.2V13.0999Z" fill="white"></path> <path d="M245.7 8.2999H243V0.399902H238.5V21.9999H243V13.0999H245.7V21.9999H250.2V0.399902H245.7V8.2999Z" fill="white"></path> <path d="M256.1 0.399902V5.1999H259.4V21.9999H263.8V5.1999H267.2V0.399902H256.1Z" fill="white"></path> </g> <defs> <clipPath id="clip0"> <rect width="267.2" height="26.1" fill="white"></rect> </clipPath> </defs> </svg> 